:SAMPLES-PER-SECOND 30
:FULLY-SPECIFIED
:DEGREES
368
root  -13.4057 40.7693 -13.2815 164.619 -83.6024 -163.833
RightUpLeg  -5.54571 -6.95499 -0.201067
RightLeg  6.26527 -6.98801 4.96016
RightFoot  -1.03047 0.332223 -3.76948
RightToes  0.00048216 0.542163 -0.142577
Spine  1.05137 -1.70014 0.0471991
Spine1  22.4546 -4.03284 5.96023
HEad  -12.1325 7.12143 8.01215
LeftShoulder1  6.65005 -13.5795 -32.8869
LeftArm  -62.2206 21.7904 -22.5863
LeftForeArm  85.82 -72.1102 -138.083
LeftHand  -0.25398 0.0180481 5.50724
RightShoulder  3.36336 7.09609 25.6399
RightArm  -46.6241 -20.1376 42.3518
RightForeArm  74.4791 63.7766 152.553
RightHand  -1.94405 6.11407 -19.8253
LeftUpLeg  -0.156319 9.97618 13.3128
LeftLeg  5.46698 9.7375 -0.916466
LeftFoot  -2.41314 0.647903 -8.0755
LeftToes  1.06246e-005 4.65855e-005 -8.18503e-006
369
root  -13.5139 40.7729 -13.3381 163.99 -83.5793 -163.29
RightUpLeg  -5.21915 -6.88966 -0.0732115
RightLeg  6.1832 -7.0451 4.94203
RightFoot  -1.15879 0.336843 -3.87305
RightToes  0.00048216 0.542163 -0.142577
Spine  0.87445 -1.67264 0.435611
Spine1  22.1217 -3.87287 5.69213
HEad  -12.2383 6.71279 7.66005
LeftShoulder1  6.79326 -13.4778 -33.9542
LeftArm  -59.3975 21.3037 -22.1769
LeftForeArm  85.237 -73.6307 -133.447
LeftHand  -0.25398 0.0180481 5.50724
RightShoulder  3.4646 7.19703 26.3131
RightArm  -43.7461 -20.6231 41.6888
RightForeArm  75.0304 65.2233 150.687
RightHand  -1.997 5.81457 -20.8567
LeftUpLeg  0.272195 9.87797 13.5002
LeftLeg  5.1736 9.807 -0.9456
LeftFoot  -2.4109 0.662993 -8.27694
LeftToes  1.06246e-005 4.65855e-005 -8.18503e-006
370
root  -13.6382 40.7784 -13.3774 163.097 -83.6488 -162.508
RightUpLeg  -4.80975 -6.86374 0.00444917
RightLeg  6.05662 -7.15211 4.9338
RightFoot  -1.29483 0.33885 -3.94985
RightToes  0.00048216 0.542163 -0.142577
Spine  0.629432 -1.59337 0.892155
Spine1  21.746 -3.63665 5.37939
HEad  -12.4016 6.17449 7.30383
LeftShoulder1  7.17031 -13.6534 -35.7086
LeftArm  -54.9767 21.2368 -21.143
LeftForeArm  85.6066 -75.2553 -127.32
LeftHand  -0.25398 0.0180481 5.50724
RightShoulder  3.60522 7.31186 27.3031
RightArm  -39.7857 -21.4714 40.7321
RightForeArm  73.772 66.7234 148.443
RightHand  -2.16097 6.05733 -22.0535
LeftUpLeg  0.741577 9.80763 13.6816
LeftLeg  4.8483 9.74799 -1.02149
LeftFoot  -2.41622 0.673857 -8.44099
LeftToes  1.06246e-005 4.65855e-005 -8.18503e-006
371
root  -13.7721 40.7805 -13.4023 161.753 -83.903 -161.205
RightUpLeg  -4.50143 -6.89518 0.0335227
RightLeg  6.03678 -7.39136 4.93489
RightFoot  -1.47283 0.342808 -4.08212
RightToes  0.00048216 0.542163 -0.142577
Spine  0.158631 -1.56506 1.20097
Spine1  21.5169 -3.53158 5.2327
HEad  -12.6367 5.52618 6.74849
LeftShoulder1  7.7009 -13.9405 -37.9946
LeftArm  -49.4922 21.572 -19.8883
LeftForeArm  85.037 -76.7229 -119.797
LeftHand  -0.25398 0.0180481 5.50724
RightShoulder  3.7905 7.50156 28.4461
RightArm  -34.8681 -22.3561 39.8319
RightForeArm  69.8001 68.1835 145.836
RightHand  -2.52422 6.74903 -24.1997
LeftUpLeg  1.02485 9.77015 13.8059
LeftLeg  4.65247 9.48351 -1.07052
LeftFoot  -2.48746 0.67542 -8.52167
LeftToes  1.06246e-005 4.65855e-005 -8.18503e-006
372
root  -13.9083 40.778 -13.4163 160.131 -84.1642 -159.591
RightUpLeg  -4.28502 -6.95375 0.0529094
RightLeg  6.14015 -7.63277 4.94873
RightFoot  -1.68429 0.345365 -4.21878
RightToes  0.00048216 0.542163 -0.142577
Spine  -0.45833 -1.56935 1.3592
Spine1  21.3648 -3.51796 5.20588
HEad  -12.7796 4.69153 6.00002
LeftShoulder1  8.1293 -14.0064 -40.1719
LeftArm  -43.7284 22.0786 -19.4625
LeftForeArm  81.0762 -77.9116 -110.267
LeftHand  -0.25398 0.0180481 5.50724
RightShoulder  3.97305 7.71761 29.434
RightArm  -29.7867 -23.144 39.6856
RightForeArm  63.3342 69.6412 142.738
RightHand  -3.39884 8.52013 -28.1842
LeftUpLeg  1.20017 9.76818 13.9165
LeftLeg  4.60314 9.173 -1.07366
LeftFoot  -2.63833 0.670068 -8.58774
LeftToes  1.06246e-005 4.65855e-005 -8.18503e-006
373
root  -14.0522 40.7767 -13.4206 158.264 -84.3345 -157.855
RightUpLeg  -3.91309 -7.01042 0.0740245
RightLeg  6.21898 -7.7875 4.96531
RightFoot  -1.90646 0.338938 -4.25883
RightToes  0.00048216 0.542163 -0.142577
Spine  -1.03557 -1.50218 1.60309
Spine1  21.1581 -3.38978 5.08345
HEad  -12.7868 3.49568 5.2123
LeftShoulder1  8.43048 -13.9294 -41.9829
LeftArm  -38.0012 22.6664 -20.2126
LeftForeArm  73.836 -78.6565 -99.148
LeftHand  -0.25398 0.0180481 5.50724
RightShoulder  4.18075 7.94178 30.5729
RightArm  -26.0788 -24.2261 40.5494
RightForeArm  55.1383 70.7387 140.02
RightHand  -5.19685 12.0799 -33.9073
LeftUpLeg  1.53826 9.76666 14.068
LeftLeg  4.5696 8.89889 -1.05831
LeftFoot  -2.82345 0.662561 -8.65911
LeftToes  1.06246e-005 4.65855e-005 -8.18503e-006
374
root  -14.2095 40.7794 -13.4151 155.832 -84.5986 -155.679
RightUpLeg  -3.31716 -7.06171 0.057846
RightLeg  6.18349 -8.01008 4.94672
RightFoot  -2.13646 0.322907 -4.18629
RightToes  0.00048216 0.542163 -0.142577
Spine  -1.60047 -1.3804 1.82923
Spine1  20.9529 -3.24096 5.07453
HEad  -12.8924 2.02409 4.38371
LeftShoulder1  8.88427 -14.0525 -44.0512
LeftArm  -32.5198 23.62 -21.4659
LeftForeArm  65.6885 -78.8762 -89.0467
LeftHand  -0.25398 0.0180481 5.50724
RightShoulder  4.56186 8.28482 32.7468
RightArm  -24.4937 -25.6541 41.4028
RightForeArm  46.6475 71.1035 139.102
RightHand  -8.00014 17.0104 -40.1783
LeftUpLeg  2.0361 9.67077 14.1845
LeftLeg  4.44675 8.58848 -1.02349
LeftFoot  -2.98028 0.652463 -8.67118
LeftToes  1.06246e-005 4.65855e-005 -8.18503e-006
375
root  -14.373 40.7842 -13.3974 152.96 -85.0301 -153.002
RightUpLeg  -2.75602 -7.11341 -0.0195043
RightLeg  6.12153 -8.37928 4.88436
RightFoot  -2.38504 0.302355 -4.0626
RightToes  0.00048216 0.542163 -0.142577
Spine  -2.32164 -1.36336 1.441
Spine1  20.8054 -3.48211 5.83512
HEad  -13.2557 0.822035 3.27825
LeftShoulder1  9.55664 -14.3049 -46.8232
LeftArm  -28.4491 25.344 -23.0545
LeftForeArm  56.973 -78.7138 -80.7274
LeftHand  -0.25398 0.0180481 5.50724
RightShoulder  5.15199 8.75243 36.0473
RightArm  -23.6603 -26.595 40.8047
RightForeArm  39.7785 71.2488 138.916
RightHand  -10.9511 21.5607 -45.1869
LeftUpLeg  2.45603 9.48249 14.1874
LeftLeg  4.24711 8.24751 -0.989644
LeftFoot  -3.10533 0.64166 -8.64324
LeftToes  1.06246e-005 4.65855e-005 -8.18503e-006
